# Blender 3.5.1
# www.blender.org
mtllib NewNote.mtl
o Cube
v -1.000000 0.087868 -0.087868
v -1.000000 -0.087868 -0.087868
v -1.000000 0.087868 0.087868
v -1.000000 -0.087868 0.087868
v -0.904977 -0.087868 -0.087868
v -0.920000 -0.087868 -0.087868
v -0.904977 0.087868 0.087868
v -0.920000 0.087868 0.087868
v -0.904977 -0.087868 0.087868
v -0.920000 -0.087868 0.087868
v -0.920000 0.087868 -0.087868
v -0.904977 0.087868 -0.087868
v -0.904977 -0.077261 -0.077261
v -0.920000 -0.077261 -0.077261
v -0.920000 0.077261 -0.077261
v -0.904977 0.077261 -0.077261
v -0.904977 -0.077261 0.077261
v -0.920000 -0.077261 0.077261
v -0.904977 0.077261 0.077261
v -0.920000 0.077261 0.077261
v 0.000000 0.087868 -0.087868
v 0.000000 -0.087868 -0.087868
v 0.000000 -0.087868 0.087868
v 0.000000 0.087868 0.087868
v 1.000000 0.087868 -0.087868
v 1.000000 -0.087868 -0.087868
v 1.000000 0.087868 0.087868
v 1.000000 -0.087868 0.087868
v 0.904977 -0.087868 -0.087868
v 0.920000 -0.087868 -0.087868
v 0.904977 0.087868 0.087868
v 0.920000 0.087868 0.087868
v 0.904977 -0.087868 0.087868
v 0.920000 -0.087868 0.087868
v 0.920000 0.087868 -0.087868
v 0.904977 0.087868 -0.087868
v 0.904977 -0.077261 -0.077261
v 0.920000 -0.077261 -0.077261
v 0.920000 0.077261 -0.077261
v 0.904977 0.077261 -0.077261
v 0.904977 -0.077261 0.077261
v 0.920000 -0.077261 0.077261
v 0.904977 0.077261 0.077261
v 0.920000 0.077261 0.077261
vn -1.0000 -0.0000 -0.0000
vn -0.0000 -0.0000 -1.0000
vn -0.0000 1.0000 -0.0000
vn -0.0000 -1.0000 -0.0000
vn -0.0000 -0.0000 1.0000
vn 1.0000 -0.0000 -0.0000
vt 0.822973 0.749935
vt 0.822973 0.999871
vt 0.822973 0.000129
vt 0.573037 0.749935
vt 0.822973 0.500000
vt 0.573038 0.999870
vt 0.822973 0.250065
vt 0.015214 0.000129
vt 0.015214 0.999870
vt 0.857106 0.000129
vt 0.857106 0.999871
vt 0.015214 0.500000
vt 0.857106 0.500000
vt 0.015214 0.250065
vt 0.857106 0.250065
vt 0.857106 0.749935
vt 0.015214 0.749935
vt 0.000129 0.984786
vt 0.000129 0.015214
vt 0.997791 0.879191
vt 0.997791 0.000129
vt 0.980724 0.879191
vt 0.980724 0.000129
vt 0.872191 0.015214
vt 0.872191 0.984786
vt 0.872191 0.734850
vt 0.980724 0.659426
vt 0.872191 0.765020
vt 0.000129 0.765020
vt 0.000129 0.734850
vt 0.997791 0.659426
vt 0.000129 0.234980
vt 0.997791 0.219895
vt 0.000129 0.265150
vt 0.872191 0.265150
vt 0.980724 0.219895
vt 0.872191 0.234980
vt 0.000129 0.515085
vt 0.997791 0.439660
vt 0.000129 0.484915
vt 0.872191 0.484915
vt 0.872191 0.515085
vt 0.980724 0.439660
vt 0.390681 0.749935
vt 0.390681 0.000129
vt 0.390681 0.999870
vt 0.390681 0.250065
vt 0.390681 0.500000
vt 0.822973 0.749935
vt 0.822973 0.999871
vt 0.822973 0.000129
vt 0.573037 0.749935
vt 0.822973 0.500000
vt 0.573038 0.999870
vt 0.822973 0.250065
vt 0.015214 0.000129
vt 0.015214 0.999870
vt 0.857106 0.000129
vt 0.857106 0.999871
vt 0.015214 0.500000
vt 0.857106 0.500000
vt 0.015214 0.250065
vt 0.857106 0.250065
vt 0.857106 0.749935
vt 0.015214 0.749935
vt 0.000129 0.984786
vt 0.000129 0.015214
vt 0.997791 0.879191
vt 0.997791 0.000129
vt 0.980724 0.879191
vt 0.980724 0.000129
vt 0.872191 0.015214
vt 0.872191 0.984786
vt 0.872191 0.734850
vt 0.980724 0.659426
vt 0.872191 0.765020
vt 0.000129 0.765020
vt 0.000129 0.734850
vt 0.997791 0.659426
vt 0.000129 0.234980
vt 0.997791 0.219895
vt 0.000129 0.265150
vt 0.872191 0.265150
vt 0.980724 0.219895
vt 0.872191 0.234980
vt 0.000129 0.515085
vt 0.997791 0.439660
vt 0.000129 0.484915
vt 0.872191 0.484915
vt 0.872191 0.515085
vt 0.980724 0.439660
s 0
usemtl Material
f 4/6/1 3/4/1 1/1/1 2/2/1
f 2/2/2 1/1/2 11/16/2 6/11/2
f 11/16/3 1/1/3 3/5/3 8/13/3
f 2/3/4 6/10/4 10/15/4 4/7/4
f 10/15/5 8/13/5 3/5/5 4/7/5
f 22/45/4 23/47/4 9/14/4 5/8/4
f 8/13/6 10/15/6 18/35/6 20/41/6
f 12/17/1 5/9/1 13/18/1 16/29/1
f 7/12/1 12/17/1 16/30/1 19/38/1
f 5/8/1 9/14/1 17/32/1 13/19/1
f 11/16/6 8/13/6 20/42/6 15/26/6
f 21/44/2 22/46/2 5/9/2 12/17/2
f 14/22/2 15/27/2 16/31/2 13/20/2
f 18/36/4 14/23/4 13/21/4 17/33/4
f 20/43/5 18/36/5 17/33/5 19/39/5
f 15/27/3 20/43/3 19/39/3 16/31/3
f 9/14/1 7/12/1 19/40/1 17/34/1
f 10/15/6 6/10/6 14/24/6 18/37/6
f 6/11/6 11/16/6 15/28/6 14/25/6
f 12/17/3 7/12/3 24/48/3 21/44/3
f 7/12/5 9/14/5 23/47/5 24/48/5
f 28/54/6 26/50/6 25/49/6 27/52/6
f 26/50/2 30/59/2 35/64/2 25/49/2
f 35/64/3 32/61/3 27/53/3 25/49/3
f 26/51/4 28/55/4 34/63/4 30/58/4
f 34/63/5 28/55/5 27/53/5 32/61/5
f 22/45/4 29/56/4 33/62/4 23/47/4
f 32/61/1 44/89/1 42/83/1 34/63/1
f 36/65/6 40/77/6 37/66/6 29/57/6
f 31/60/6 43/86/6 40/78/6 36/65/6
f 29/56/6 37/67/6 41/80/6 33/62/6
f 35/64/1 39/74/1 44/90/1 32/61/1
f 21/44/2 36/65/2 29/57/2 22/46/2
f 38/70/2 37/68/2 40/79/2 39/75/2
f 42/84/4 41/81/4 37/69/4 38/71/4
f 44/91/5 43/87/5 41/81/5 42/84/5
f 39/75/3 40/79/3 43/87/3 44/91/3
f 33/62/6 41/82/6 43/88/6 31/60/6
f 34/63/1 42/85/1 38/72/1 30/58/1
f 30/59/1 38/73/1 39/76/1 35/64/1
f 36/65/3 21/44/3 24/48/3 31/60/3
f 31/60/5 24/48/5 23/47/5 33/62/5
